<?xml version="1.0" encoding="UTF-8"?>
<svg version="1.1" viewBox="0 0 2048 2048" width="512" height="512" xmlns="http://www.w3.org/2000/svg">
<path transform="translate(1342,1365)" d="m0 0h45l28 4 24 6 22 8 22 10 14 8 15 10 16 12 12 11 9 8 7 8 8 9 14 19 10 16 8 16 8 18 2 7h273l18 2 12 4 14 7 14 11 9 10 8 13 5 11 4 17v22l-4 17-8 17-9 12-10 10-14 9-14 6-13 3-8 1-277 1-8 20-10 20-12 19-9 12-11 13-11 12-14 13-17 13-15 10-22 12-21 9-21 7-27 6-23 3-14 1h-13l-24-2-20-3-20-5-24-8-20-9-20-11-16-11-14-11-10-9-19-19-11-14-11-15-11-19-11-23-7-19-5-17-5-27-2-18v-34l3-25 6-27 8-24 9-20 9-17 11-17 10-13 11-13 11-12 8-7 12-10 15-11 18-11 19-10 26-10 18-5 25-5z"/>
<path transform="translate(672,767)" d="m0 0h24l22 2 26 5 24 7 24 10 23 12 15 10 16 12 12 11 8 7 12 13 11 14 11 16 10 17 11 23 7 19 7 27 4 26 1 14v23l-2 23-5 26-7 24-8 20-8 17-12 20-10 14-13 16-23 23-17 13-10 7-15 9-19 10-20 8-19 6-21 5-20 3-12 1h-33l-26-3-22-5-20-6-20-8-22-11-19-12-18-14-13-12-16-16-11-14-11-15-14-24-9-20-3-10h-273l-17-2-13-4-16-8-13-11-8-9-8-13-4-8-4-14-2-14 1-16 4-15 5-12 7-11 11-12 9-8 14-8 15-5 12-2 279-1 9-21 10-19 11-18 13-17 12-14 14-14 8-7 17-13 17-11 18-10 23-10 22-7 22-5 21-3z"/>
<path transform="translate(1690,170)" d="m0 0h32l21 2 26 5 23 7 24 10 21 11 21 14 10 8 11 9 20 20 11 14 9 12 11 18 10 19 8 20 6 18 6 27 3 25v35l-3 25-6 26-10 30-13 27-8 13-12 17-9 11-9 10-17 17-14 11-17 12-23 13-23 10-21 7-26 6-21 3-11 1h-30l-19-2-25-5-21-6-21-8-24-12-19-12-17-13-13-12-8-7-12-13-12-15-12-18-12-22-9-21-7-21-5-22-3-19-1-11v-34l3-25 5-24 10-30 11-24 13-22 12-16 11-14 20-20 11-9 13-10 19-12 23-12 23-9 25-7 21-4z"/>
<path transform="translate(158,341)" d="m0 0h1048l14 3 16 7 11 7 12 11 9 12 7 14 4 13 1 6v25l-4 16-8 17-10 13-7 7-10 7-16 8-15 4-8 1h-1040l-17-3-12-5-12-7-12-10-11-14-8-16-4-13-2-15 1-15 4-16 8-16 10-14 5-5h2v-2l13-9 12-6 14-4z"/>
<path transform="translate(169,1535)" d="m0 0h686l18 2 12 4 14 7 14 11 9 10 8 13 5 11 4 17v22l-4 17-8 17-9 12-10 10-14 9-14 6-13 3-8 1h-696l-17-3-12-5-11-6-10-8-9-9-7-10-7-14-4-13-2-16 1-14 4-16 8-17 9-12 10-10 14-9 11-5 16-4z"/>
<path transform="translate(1186,938)" d="m0 0h698l13 2 13 4 15 8 10 8 9 9 10 15 6 15 3 13v23l-4 16-7 16-7 10-9 10-10 8-15 8-16 5-17 2h-685l-17-2-13-4-16-8-13-11-9-10-9-15-6-18-2-15 1-16 4-15 5-12 8-13h2l2-4 12-12 15-9 13-5z"/>
</svg>
