<?xml version="1.0" encoding="UTF-8"?>
<svg version="1.1" viewBox="0 0 2048 2048" width="512" height="512" xmlns="http://www.w3.org/2000/svg">
<path transform="translate(169,1047)" d="m0 0h1710l18 2 12 4 14 7 14 11 9 10 8 13 5 11 4 17v22l-4 17-8 17-9 12-10 10-14 9-14 6-13 3-8 1h-1720l-17-3-12-5-11-6-10-8-9-9-7-10-7-14-4-13-2-16 1-14 4-16 8-17 9-12 10-10 14-9 11-5 16-4z"/>
<path transform="translate(162,1474)" d="m0 0h1722l13 2 13 4 15 8 10 8 9 9 10 15 6 15 3 13v23l-4 16-7 16-7 10-9 10-10 8-15 8-16 5-17 2h-1709l-17-2-13-4-16-8-13-11-8-9-8-13-4-8-4-14-2-14 1-16 4-15 5-12 7-11 11-12 9-8 14-8 15-5z"/>
<path transform="translate(158,621)" d="m0 0h1730l15 3 16 7 13 9 8 7 10 13 8 16 5 19v23l-5 19-8 16-8 11h-2l-2 4h-2v2l-12 9-14 7-17 5-9 1h-1722l-17-3-12-5-12-7-11-9-9-11-7-11-6-14-3-13-1-15 2-15 5-16 7-13 11-14 3-3h2v-2l13-9 12-6 14-4z"/>
</svg>
